<?xml version="1.0" standalone="no"?>
<!DOCTYPE svg PUBLIC "-//W3C//DTD SVG 20010904//EN"
 "http://www.w3.org/TR/2001/REC-SVG-20010904/DTD/svg10.dtd">
<svg version="1.0" xmlns="http://www.w3.org/2000/svg"
 width="720.000000pt" height="720.000000pt" viewBox="0 0 720.000000 720.000000"
 preserveAspectRatio="xMidYMid meet">

<g transform="translate(0.000000,720.000000) scale(0.100000,-0.100000)"
fill="#000000" stroke="none">
<path d="M1855 7189 c-613 -18 -873 -84 -1180 -301 -115 -81 -282 -248 -363
-363 -192 -271 -259 -490 -292 -945 -16 -213 -25 -1376 -11 -1384 6 -4 11 -15
11 -24 0 -15 -2 -15 -10 -2 -6 9 -10 10 -10 3 0 -6 4 -14 8 -17 5 -3 7 -19 6
-36 -2 -27 0 -29 14 -18 13 11 15 10 9 -5 -4 -11 -1 -20 8 -23 8 -4 12 -11 8
-17 -3 -6 -1 -7 5 -3 11 6 16 -6 13 -26 0 -5 2 -7 7 -7 29 5 38 -27 17 -61 -8
-13 -7 -13 8 -1 9 7 14 17 11 22 -3 5 -1 9 4 9 14 0 35 -47 27 -61 -5 -8 -4
-10 3 -5 7 4 12 14 12 21 0 9 6 12 17 8 15 -5 14 -3 -2 10 -11 8 -23 13 -27
11 -5 -3 -8 -1 -8 5 0 17 18 22 24 6 3 -8 11 -15 17 -15 8 0 8 4 1 13 -6 7 -6
20 -1 32 8 18 8 17 6 -5 -1 -15 3 -24 10 -23 12 2 11 -10 -2 -39 -4 -10 -12
-15 -19 -11 -6 3 -8 3 -4 -2 4 -4 0 -14 -10 -22 -16 -12 -16 -13 2 -6 15 5 17
3 11 -8 -8 -12 -6 -12 8 0 15 12 17 11 14 -5 -1 -11 -7 -26 -12 -34 -7 -13 -6
-13 7 -2 13 11 16 9 20 -13 3 -14 1 -28 -4 -31 -5 -3 -2 -14 6 -23 9 -10 13
-21 9 -25 -4 -4 1 -4 11 0 12 5 14 9 6 14 -8 5 -7 9 4 13 12 5 16 0 16 -19 0
-14 -4 -23 -9 -20 -11 7 -8 -21 4 -31 4 -4 5 -2 1 5 -4 7 -1 14 7 17 9 4 12
16 9 36 -3 19 -9 28 -17 25 -8 -3 -11 6 -9 29 1 19 -4 42 -13 52 -8 10 -12 12
-8 6 11 -22 -2 -14 -18 11 -14 21 -14 26 -2 36 12 10 13 8 10 -9 -4 -20 6 -26
30 -21 5 1 7 -1 3 -5 -4 -4 0 -14 8 -22 10 -11 12 -19 5 -27 -8 -9 -6 -19 4
-32 8 -10 15 -29 15 -40 0 -23 23 -48 33 -38 4 4 2 -7 -3 -25 -8 -28 3 -46 12
-19 3 8 7 6 11 -5 4 -10 2 -16 -6 -14 -8 1 -12 -11 -11 -35 1 -21 -2 -36 -6
-33 -4 2 -7 -2 -7 -10 0 -8 4 -12 9 -9 4 3 8 -6 8 -20 0 -14 4 -26 9 -26 6 0
6 12 1 28 -5 20 -4 29 4 29 8 0 11 -10 8 -25 -3 -15 -1 -22 5 -19 13 8 11 -36
-2 -45 -6 -5 -5 -8 3 -8 8 0 10 -5 6 -12 -6 -10 -4 -10 8 0 13 11 16 8 20 -18
3 -22 1 -30 -11 -30 -13 -1 -13 -2 2 -11 9 -6 15 -14 12 -19 -3 -5 -1 -11 4
-15 6 -3 8 5 5 20 -3 16 1 27 10 31 14 5 16 27 3 40 -4 4 -8 -4 -8 -17 -1 -21
-2 -20 -8 6 -4 17 -12 29 -18 28 -10 -2 -10 38 1 56 4 5 -2 12 -11 14 -10 3
-7 4 8 4 14 -1 26 -7 26 -14 0 -6 -4 -10 -9 -7 -4 3 -8 -7 -7 -23 0 -25 1 -26
10 -8 9 19 9 19 6 -1 -3 -13 3 -25 14 -33 11 -6 18 -14 16 -19 -1 -4 3 -7 8
-7 5 0 9 4 7 8 -1 5 2 5 8 2 8 -5 6 -13 -6 -26 -14 -15 -15 -24 -6 -43 6 -13
8 -27 4 -30 -3 -4 -7 -18 -8 -32 0 -13 2 -22 5 -18 3 3 7 14 7 25 2 32 5 35
14 14 8 -18 9 -17 9 8 1 20 -3 26 -11 21 -7 -4 -10 -4 -6 1 4 4 3 14 -2 20 -7
9 -6 16 4 24 10 8 16 9 21 1 4 -6 3 -9 -2 -8 -4 2 -8 -1 -8 -7 0 -5 3 -9 7 -8
5 2 7 0 7 -5 -1 -4 -1 -14 0 -22 1 -13 2 -13 11 0 8 13 10 13 10 -2 0 -10 9
-22 20 -28 11 -6 18 -15 15 -21 -4 -5 -1 -9 4 -9 6 0 11 -5 11 -11 0 -5 -5 -7
-12 -3 -6 4 -9 3 -6 -2 9 -15 -11 -56 -23 -48 -8 4 -9 3 -5 -5 6 -9 11 -9 23
1 9 7 19 12 22 12 13 -3 31 9 25 17 -8 14 -14 53 -7 45 16 -15 24 -107 12
-123 -7 -7 -6 -13 0 -17 5 -4 8 -15 6 -26 -2 -11 0 -19 5 -17 4 1 9 -2 10 -8
1 -5 15 -25 31 -43 16 -18 27 -37 24 -41 -2 -5 3 -8 12 -7 9 0 18 -5 21 -13 3
-10 0 -11 -9 -5 -11 6 -12 5 -2 -8 7 -8 9 -19 5 -23 -4 -5 -1 -5 6 -1 7 4 10
12 7 17 -4 5 -2 9 4 9 5 0 11 -6 14 -12 3 -7 4 -3 4 9 -1 12 -5 19 -11 16 -5
-4 -6 -1 -1 7 6 9 4 11 -5 5 -9 -6 -11 -4 -5 5 5 9 4 11 -4 6 -6 -4 -11 -4
-10 1 3 20 -2 27 -11 13 -8 -13 -9 3 -1 53 0 4 6 7 13 7 9 0 9 -3 0 -12 -16
-16 -15 -31 1 -21 25 16 34 10 33 -21 0 -17 4 -30 9 -28 6 1 10 6 10 11 0 5 3
12 7 16 3 4 5 -1 4 -12 -2 -10 0 -22 4 -28 4 -5 3 -19 -1 -30 -9 -18 -9 -18
-5 2 2 13 1 25 -4 28 -4 3 -10 -8 -12 -25 -3 -17 0 -27 6 -23 6 4 7 -1 2 -13
-7 -18 -6 -18 12 1 11 11 18 22 16 25 -1 3 2 12 7 20 13 22 6 -19 -8 -45 -9
-17 -8 -26 7 -45 15 -19 16 -28 7 -40 -7 -10 -4 -9 9 3 11 9 24 14 28 10 4 -4
4 0 0 10 -5 13 -2 16 12 10 12 -4 15 -3 10 6 -5 7 -15 10 -23 7 -9 -4 -11 -2
-7 6 4 7 3 8 -4 4 -6 -4 -9 -14 -6 -24 5 -14 2 -13 -11 3 -14 18 -14 20 0 23
8 2 13 8 9 13 -3 5 -10 6 -16 3 -7 -4 -8 -2 -4 4 7 12 36 5 36 -8 0 -4 7 -10
15 -14 11 -4 15 1 15 17 0 18 -2 19 -10 7 -5 -8 -10 -10 -10 -4 0 6 7 17 15
24 8 7 12 17 8 23 -3 6 -1 7 6 3 6 -4 8 -13 4 -19 -4 -7 -6 -31 -6 -55 1 -25
-2 -40 -8 -37 -5 4 -8 1 -7 -7 2 -7 -4 -12 -13 -10 -9 1 -22 -6 -30 -15 -11
-15 -11 -16 1 -5 21 18 34 15 19 -5 -13 -17 -13 -17 7 0 11 9 24 14 29 10 4
-5 5 -2 1 5 -8 14 10 17 18 3 8 -12 -19 -33 -29 -23 -5 4 -5 1 -1 -6 6 -11 12
-10 27 4 17 16 24 13 20 -9 -1 -5 3 -6 9 -2 6 3 8 10 5 15 -3 5 -1 11 5 15 5
3 10 -3 10 -14 0 -11 -5 -23 -10 -26 -6 -4 -8 -11 -4 -16 3 -5 10 -7 15 -4 5
4 9 -6 9 -21 0 -15 3 -25 6 -22 3 4 -2 52 -11 109 -65 414 -71 893 -14 1214
65 361 207 715 407 1015 457 686 1215 1137 2051 1220 149 15 456 12 602 -5
1121 -131 2042 -958 2304 -2069 52 -222 69 -373 69 -641 0 -268 -11 -382 -60
-600 -185 -827 -759 -1530 -1536 -1881 -307 -138 -639 -213 -1033 -233 -116
-5 -146 -9 -95 -11 41 -1 78 -2 82 -2 3 1 9 -5 12 -13 6 -18 1 -19 -24 -5 -16
9 -18 7 -15 -11 3 -12 7 -24 11 -28 4 -3 4 2 1 12 -7 20 -3 21 23 7 20 -10 42
-64 32 -75 -4 -4 -7 -12 -7 -18 -1 -7 -7 -11 -14 -9 -7 1 -9 -2 -6 -9 5 -8 10
-8 18 0 15 15 30 14 20 -1 -4 -7 -8 -20 -8 -28 0 -8 -4 -22 -9 -30 -7 -12 -7
-13 5 -2 8 7 14 17 14 22 0 6 5 10 10 10 6 0 10 -4 10 -10 0 -5 6 -15 12 -21
10 -10 9 -17 -5 -33 -17 -21 -17 -21 4 -4 14 13 23 15 31 7 23 -23 22 10 -2
35 -13 14 -19 26 -12 26 8 0 8 3 -2 9 -11 7 -11 10 0 14 10 4 8 6 -3 4 -9 -1
-17 3 -17 8 0 6 7 9 15 7 8 -2 14 2 14 8 0 6 -4 9 -9 5 -6 -3 -15 4 -21 15 -6
11 -15 18 -21 15 -5 -4 -10 2 -11 12 0 10 -2 25 -2 33 -1 8 -6 14 -12 13 -5
-1 -11 8 -11 20 l-2 22 17 -23 c15 -19 20 -20 32 -10 8 7 6 3 -4 -9 -15 -19
-16 -25 -6 -38 7 -8 16 -12 21 -9 5 3 9 2 8 -3 -3 -20 2 -34 11 -28 5 3 6 13
3 23 -3 9 -3 14 1 11 6 -6 9 -15 20 -69 2 -8 8 -14 13 -13 5 1 10 -4 10 -12 0
-8 -3 -14 -6 -13 -19 2 -24 -3 -12 -11 18 -11 43 -3 34 12 -4 6 -1 7 7 2 10
-6 8 -12 -8 -24 -18 -14 -19 -19 -8 -34 7 -9 16 -17 20 -17 8 0 3 24 -7 31 -5
3 -2 9 6 12 11 4 15 0 12 -13 -2 -11 0 -22 6 -25 5 -4 9 -15 9 -25 0 -10 5
-22 10 -25 10 -6 10 0 -4 62 -3 13 -1 25 3 27 4 3 8 -5 9 -17 1 -12 3 -42 6
-67 2 -25 -2 -51 -8 -59 -8 -11 -8 -13 1 -8 6 4 14 1 16 -5 3 -7 4 2 3 20 -2
18 0 35 5 38 4 2 6 11 2 19 -6 17 5 19 27 5 12 -8 12 -10 1 -10 -18 0 -6 -13
14 -16 11 -2 14 5 11 22 -3 13 -1 22 4 19 4 -3 7 -16 5 -30 -1 -16 2 -24 9
-22 6 2 10 14 10 26 -1 16 2 19 11 11 6 -5 14 -8 17 -5 2 3 5 -2 5 -10 0 -8
-4 -12 -8 -9 -4 2 -10 0 -13 -5 -10 -16 14 -23 31 -9 14 11 16 11 8 -1 -6 -11
-4 -13 8 -8 10 3 17 3 17 -2 0 -16 -14 -20 -29 -9 -9 7 -13 8 -9 4 4 -5 3 -15
-3 -22 -7 -8 -6 -14 2 -20 7 -4 9 -3 5 4 -3 6 -2 13 3 16 5 4 12 -2 14 -11 4
-17 5 -17 6 0 0 9 5 17 10 17 10 0 9 -19 -1 -36 -4 -6 -1 -11 7 -11 7 0 12 8
10 19 -2 10 0 18 6 18 9 0 12 -12 10 -40 0 -11 1 -11 5 -2 5 10 9 10 20 1 12
-9 12 -15 2 -28 -8 -10 -5 -9 10 3 23 20 31 10 10 -13 -10 -11 -10 -12 -1 -7
7 4 18 16 24 28 8 14 8 18 0 14 -7 -5 -9 -1 -5 11 5 15 4 16 -5 3 -9 -13 -11
-13 -11 0 0 12 -2 12 -9 1 -7 -10 -12 -8 -24 9 -14 20 -14 50 0 50 3 0 3 -6 0
-14 -7 -17 18 -42 27 -27 3 5 0 12 -6 14 -8 4 -9 6 -2 6 6 1 17 -6 24 -14 10
-12 16 -13 29 -3 13 10 14 10 4 -2 -22 -24 -14 -34 10 -14 12 10 19 15 15 10
-4 -5 0 -22 8 -38 15 -29 16 -30 37 -11 22 18 22 18 4 -3 -17 -21 -15 -35 6
-30 7 2 9 1 6 -1 -3 -2 -5 -16 -3 -31 l4 -27 -9 25 c-8 22 -9 22 -10 4 -1 -11
-6 -25 -11 -32 -7 -9 -7 -9 2 -2 8 7 19 3 37 -13 13 -12 21 -16 17 -9 -4 6 -3
12 2 12 14 0 21 -37 10 -48 -6 -6 -6 -12 1 -17 6 -3 11 -3 10 2 -4 22 3 25 21
8 11 -10 17 -23 13 -29 -4 -6 0 -5 9 2 12 10 18 10 28 -2 6 -9 8 -21 4 -28
-11 -19 1 -7 35 36 26 32 29 41 19 55 -12 14 -11 14 4 2 12 -9 15 -19 10 -30
-13 -25 -9 -44 11 -47 15 -2 21 7 19 27 -1 3 5 6 13 6 11 0 11 -4 0 -21 -8
-12 -14 -25 -14 -29 1 -5 -3 -12 -7 -15 -4 -4 -4 -1 1 7 6 10 4 12 -5 6 -8 -5
-11 -4 -6 3 4 7 -1 10 -14 7 -11 -2 -18 0 -16 4 3 4 -1 8 -7 8 -15 0 -20 -34
-6 -42 5 -3 6 1 3 9 -9 23 26 13 47 -15 16 -20 18 -20 12 -4 -6 18 -5 18 10 6
9 -7 17 -10 17 -6 0 5 9 0 21 -11 13 -12 19 -14 17 -5 -2 7 3 16 11 19 9 3 11
0 6 -9 -5 -8 1 -5 13 5 23 20 30 10 10 -14 -11 -12 -10 -12 4 -1 15 11 19 11
23 -1 3 -8 13 -15 22 -15 13 0 13 2 -3 14 -10 7 -12 13 -6 13 7 0 12 7 12 15
0 8 -5 15 -11 15 -5 0 -8 -4 -4 -9 3 -5 1 -12 -4 -15 -5 -3 -11 4 -15 17 -3
13 -9 18 -13 12 -10 -12 -37 -19 -29 -7 2 4 1 14 -5 22 -7 13 -9 12 -9 -1 0
-9 -8 -23 -17 -30 -10 -8 -14 -9 -10 -2 5 8 1 11 -12 8 -14 -3 -18 1 -14 16 8
28 22 34 16 7 -3 -17 -2 -19 5 -9 8 11 11 11 16 0 3 -8 4 -4 2 8 -2 12 -1 22
3 21 19 -2 22 4 10 20 -11 15 -11 15 1 4 8 -7 16 -17 16 -22 1 -6 2 -14 3 -20
0 -5 5 -10 11 -10 5 0 8 6 6 12 -1 7 -1 10 1 5 3 -4 10 -4 15 -1 6 4 8 2 4 -4
-3 -6 -2 -13 4 -17 5 -3 11 -1 11 4 3 26 4 30 11 37 4 3 6 -3 3 -14 -2 -12 0
-24 6 -27 9 -6 11 2 12 43 0 22 1 22 18 6 12 -11 17 -25 13 -36 -4 -13 -1 -16
10 -12 15 6 12 27 -6 50 -5 7 -1 17 9 25 16 12 17 12 7 -1 -13 -17 7 -65 22
-52 4 4 3 0 -4 -9 -6 -8 -9 -26 -6 -40 3 -13 6 -29 6 -36 1 -7 5 -10 10 -7 4
3 4 14 -2 24 -7 13 -7 21 0 25 10 6 11 5 14 -14 2 -18 13 -21 12 -4 0 10 4 19
9 20 6 1 9 -8 7 -20 -3 -19 -1 -18 12 5 8 16 17 32 21 37 3 5 0 13 -6 17 -8 5
-9 3 -4 -6 5 -9 4 -11 -3 -6 -8 5 -10 1 -6 -11 4 -11 3 -14 -3 -7 -8 12 -45
15 -38 4 2 -4 -2 -7 -9 -7 -10 0 -10 6 -2 24 8 17 12 19 14 7 3 -14 6 -14 28
1 13 8 24 12 24 9 0 -4 10 1 23 12 12 10 16 12 10 4 -19 -20 -16 -39 5 -35 9
2 20 4 25 4 4 1 6 4 5 9 -2 4 2 8 7 10 6 1 10 -2 10 -8 0 -5 5 -9 10 -7 6 1 9
10 9 20 -1 10 1 15 5 12 3 -4 6 -12 6 -18 1 -7 6 -11 12 -10 6 1 10 -5 8 -15
-2 -9 -4 -21 -4 -26 -1 -5 -4 -6 -8 -3 -3 4 -12 2 -20 -4 -9 -9 -13 -8 -14 0
-1 6 -2 17 -3 24 -2 14 -28 10 -38 -6 -6 -9 -8 -8 -8 2 0 8 -3 11 -7 8 -3 -4
2 -16 12 -27 10 -11 15 -20 10 -20 -4 0 -2 -6 4 -13 6 -8 7 -18 3 -22 -4 -5
-1 -5 6 -1 7 4 9 13 5 19 -4 7 -8 23 -9 36 -1 22 0 23 12 6 7 -10 11 -21 9
-26 -3 -4 -1 -10 5 -14 6 -4 7 -12 3 -18 -3 -7 3 -4 14 6 17 14 22 15 31 4 8
-10 8 -17 1 -24 -8 -8 -8 -16 0 -30 11 -16 11 -16 6 4 -5 19 -3 22 12 17 14
-4 15 -4 4 4 -11 8 -11 10 0 14 10 3 9 10 -4 28 -9 14 -17 19 -17 12 0 -7 -5
-10 -10 -7 -8 5 -7 12 2 22 8 10 14 11 16 4 2 -6 8 -9 13 -6 5 4 6 -2 3 -12
-5 -16 -4 -16 10 1 12 15 16 16 16 5 0 -12 2 -12 11 1 10 13 10 13 6 -1 -3 -9
4 -21 15 -28 14 -9 17 -16 10 -23 -6 -6 -8 -17 -5 -26 4 -10 2 -13 -5 -8 -7 4
-10 18 -8 32 3 13 0 24 -5 24 -5 0 -10 -12 -10 -27 l-1 -28 -8 30 c-8 29 -8
29 -7 -7 1 -21 5 -34 11 -31 6 4 6 -1 2 -13 -5 -10 -8 -25 -7 -31 3 -37 5 -42
14 -36 7 4 8 -1 3 -13 -5 -14 -4 -16 4 -8 9 9 8 18 -4 36 -10 16 -12 28 -6 38
8 12 10 11 10 -7 0 -12 5 -25 11 -29 6 -3 9 -17 6 -30 -2 -13 0 -21 5 -18 6 4
8 17 5 30 -2 12 0 29 4 36 7 11 14 -31 11 -63 -2 -14 44 -2 57 14 11 16 15 17
30 4 16 -15 141 -24 256 -19 28 1 85 3 128 5 42 1 77 5 77 9 0 4 25 6 55 5 30
-2 55 2 55 7 0 5 20 6 45 4 28 -4 42 -2 38 5 -3 6 8 8 31 5 20 -2 36 0 36 5 0
5 13 7 29 5 18 -3 27 0 24 5 -3 6 7 8 25 5 18 -3 29 0 25 5 -4 6 5 8 20 5 16
-3 24 -1 20 5 -4 6 4 8 20 5 16 -3 24 -1 20 5 -4 6 2 8 15 5 14 -4 20 -2 15 5
-4 6 2 8 15 5 12 -4 22 -2 22 4 0 6 7 7 16 4 12 -4 15 -2 10 9 -5 13 -2 14 15
4 15 -8 19 -8 15 0 -7 10 8 15 41 14 7 -1 11 3 8 7 -6 10 24 22 36 14 5 -3 9
0 9 6 0 6 5 8 12 4 8 -5 9 -2 4 11 -5 15 -4 16 9 5 11 -9 15 -9 15 -1 0 7 5 9
12 5 6 -4 8 -3 4 4 -5 8 31 29 42 23 1 0 11 8 22 19 12 12 25 18 30 15 9 -6
15 9 11 29 -1 5 4 4 12 -3 12 -9 16 -8 21 4 3 9 11 13 17 9 8 -4 9 -3 5 4 -4
7 -2 12 4 12 6 0 9 4 6 9 -4 5 2 8 11 7 10 -2 26 8 36 21 11 13 21 22 24 20 2
-3 25 16 50 42 25 25 38 35 27 21 l-19 -25 27 24 c15 13 25 28 22 33 -3 5 0 7
8 6 7 -2 12 3 10 10 -1 8 1 11 6 8 5 -3 20 6 33 21 13 14 17 23 9 19 -8 -4 5
12 30 35 25 23 38 39 30 35 -8 -4 -2 4 13 18 15 14 24 26 20 26 -4 1 2 9 14
19 12 10 19 21 16 25 -3 3 2 8 11 12 9 3 13 10 10 15 -3 5 2 12 10 15 9 3 13
10 10 15 -3 5 2 12 10 15 9 3 13 10 10 15 -3 5 0 9 6 9 6 0 8 5 5 10 -3 6 1
13 9 16 9 3 13 10 10 15 -3 5 0 9 6 9 6 0 8 5 5 10 -3 6 -1 10 5 10 6 0 8 5 5
10 -3 6 -1 10 5 10 6 0 8 5 5 10 -3 6 -1 10 5 10 6 0 8 5 5 10 -3 6 -1 10 5
10 6 0 8 5 5 10 -3 6 -1 10 5 10 6 0 9 4 5 9 -3 5 -1 12 5 16 6 4 8 11 5 16
-4 5 -1 9 6 9 7 0 9 3 6 7 -4 3 -2 12 4 20 6 7 8 13 4 13 -4 0 -2 7 5 15 7 8
9 15 5 15 -4 0 -2 7 5 15 7 8 9 15 5 15 -4 0 -2 7 5 15 7 9 10 18 7 22 -4 3
-2 12 5 20 6 7 8 16 5 20 -4 3 -3 11 2 17 11 13 36 164 51 301 6 55 15 232 20
395 11 341 11 3128 -1 3485 -11 374 -42 600 -109 800 -127 380 -506 765 -890
906 -195 71 -434 105 -822 118 -303 10 -3173 10 -3513 0z m-1816 -3021 c-3
-28 14 -58 33 -58 10 0 16 5 13 10 -4 6 -11 8 -16 4 -5 -3 -9 -2 -8 3 1 4 0
10 -1 13 -6 16 -7 41 -2 35 4 -4 7 -12 7 -18 1 -7 6 -11 13 -9 7 1 11 -4 9
-10 -1 -7 5 -12 13 -10 9 1 7 -5 -7 -17 -13 -11 -23 -25 -23 -33 0 -10 3 -9
10 2 9 13 10 13 11 0 1 -8 1 -22 0 -30 -1 -8 7 0 18 18 12 17 24 32 28 32 4 0
2 -5 -5 -12 -19 -19 -14 -32 6 -17 15 12 16 12 5 -2 -7 -9 -9 -20 -5 -24 4 -5
2 -5 -5 -1 -6 3 -14 2 -18 -4 -6 -10 3 -13 37 -13 10 0 15 -4 12 -8 -3 -5 -10
-7 -15 -4 -5 4 -9 -1 -9 -9 0 -10 -6 -13 -16 -9 -13 5 -13 7 -2 14 9 6 9 9 1
9 -7 0 -28 16 -47 35 -20 19 -31 35 -27 35 5 0 4 11 -2 25 -10 21 -13 22 -19
7 -4 -10 -6 -5 -3 13 2 17 4 33 4 38 1 4 3 7 6 7 3 0 5 -6 4 -12z m196 -332
c-4 -47 -4 -48 -15 -41 -6 4 -7 12 -3 18 10 15 4 48 -10 66 -10 12 -9 12 9 1
16 -10 21 -22 19 -44z m62 -8 c-3 -7 -5 -2 -5 12 0 14 2 19 5 13 2 -7 2 -19 0
-25z m8 -48 c1 -10 -2 -17 -6 -14 -4 2 -7 13 -6 24 2 23 10 17 12 -10z m30
-134 c0 -15 -4 -21 -9 -16 -5 5 -6 16 -3 24 9 22 12 20 12 -8z m38 -33 c-3 -7
-6 -13 -8 -13 -2 0 -5 6 -8 13 -3 8 1 14 8 14 7 0 11 -6 8 -14z m181 -318 c-4
-8 -8 -15 -10 -15 -2 0 -4 7 -4 15 0 8 4 15 10 15 5 0 7 -7 4 -15z m66 -24
c-14 -27 -13 -36 4 -22 11 9 16 9 22 0 4 -7 3 -9 -4 -5 -6 3 -18 -3 -26 -15
-15 -23 -12 -44 5 -33 5 3 7 9 4 14 -3 5 -1 11 4 14 4 3 8 -4 7 -17 0 -12 4
-21 10 -20 7 1 10 -15 10 -42 l-1 -44 -22 21 c-13 12 -21 24 -18 26 3 3 -2 14
-12 24 -9 10 -13 18 -8 18 4 0 2 7 -5 15 -10 12 -9 16 4 21 9 3 13 10 10 15
-5 9 12 49 22 49 2 0 0 -9 -6 -19z m110 -105 c0 -2 -8 -10 -17 -17 -16 -13
-17 -12 -4 4 13 16 21 21 21 13z m147 -88 c-3 -7 -5 -2 -5 12 0 14 2 19 5 13
2 -7 2 -19 0 -25z m-51 -50 c4 4 2 -1 -5 -11 -15 -19 -24 -16 -27 9 -2 11 1
12 10 5 7 -6 17 -7 22 -3z m61 -40 c-2 -13 -4 -5 -4 17 -1 22 1 32 4 23 2 -10
2 -28 0 -40z m-1 -31 c16 6 20 -33 5 -56 -12 -18 -25 3 -27 44 -1 16 0 25 3
18 2 -7 11 -9 19 -6z m2909 -2096 c3 -5 2 -12 -3 -15 -5 -3 -9 1 -9 9 0 17 3
19 12 6z m-31 -83 c-3 -4 -11 -5 -20 -1 -11 4 -12 8 -3 20 10 11 14 11 20 1 4
-6 6 -15 3 -20z m7 -35 c12 -16 12 -17 -2 -6 -9 7 -20 9 -24 5 -5 -4 -5 -1 -1
6 9 16 11 15 27 -5z m37 -53 c17 -27 10 -25 -19 6 -13 14 -17 23 -9 19 9 -3
21 -14 28 -25z m308 -120 c0 -11 -4 -20 -8 -20 -10 0 -11 24 -1 33 9 9 9 10 9
-13z m80 -16 c1 -9 0 -13 -4 -10 -3 4 -7 14 -8 22 -1 9 0 13 4 10 3 -4 7 -14
8 -22z m148 -140 c-3 -17 -1 -23 6 -19 7 4 14 -2 17 -14 5 -20 7 -20 18 -5 9
14 14 14 20 4 5 -9 4 -11 -3 -6 -14 8 -15 4 -6 -18 6 -15 8 -15 20 1 13 17 14
17 7 -2 -6 -18 -5 -18 10 -6 9 7 15 17 12 21 -3 5 -1 11 4 14 5 4 8 -2 6 -11
-1 -10 2 -24 8 -30 14 -19 -11 -47 -29 -32 -17 14 -18 -2 -1 -21 10 -12 9 -12
-6 -1 -10 8 -15 21 -12 31 3 11 0 17 -10 17 -11 0 -13 -6 -9 -21 6 -20 5 -20
-20 3 -18 17 -24 30 -20 47 4 17 2 22 -10 20 -8 -1 -18 -5 -22 -9 -13 -13 -24
4 -14 22 5 10 6 22 2 26 -4 5 -2 5 5 1 6 -3 14 -2 18 4 11 17 14 11 9 -16z
m33 1 c0 -8 -4 -12 -9 -9 -5 3 -6 10 -3 15 9 13 12 11 12 -6z m50 -20 c0 -8
-4 -12 -9 -9 -5 3 -6 10 -3 15 9 13 12 11 12 -6z m349 -80 c-1 -8 -5 -17 -8
-21 -5 -4 -4 16 1 34 3 9 9 -1 7 -13z m61 0 c0 -8 -4 -12 -9 -9 -5 3 -6 10 -3
15 9 13 12 11 12 -6z m118 -102 c-2 -10 -4 -19 -4 -21 -1 -2 -6 0 -11 3 -8 5
-7 11 1 21 15 18 18 18 14 -3z m165 -80 c0 -8 5 -11 11 -7 8 4 8 1 2 -12 -6
-11 -7 -30 -2 -44 6 -20 13 -13 11 11 -1 3 5 6 13 6 11 0 10 -5 -2 -24 -17
-26 -32 -22 -34 10 -1 14 -4 9 -9 -13 -7 -35 -7 -35 -9 -5 -1 17 -9 39 -18 50
-10 13 -14 15 -10 4 3 -9 2 -21 -2 -27 -3 -6 -11 4 -17 23 -8 25 -8 32 0 27
21 -13 38 -11 32 5 -3 8 -3 19 0 24 8 13 34 -9 34 -28z m44 -21 c3 -5 -1 -9
-9 -9 -8 0 -12 4 -9 9 3 4 7 8 9 8 2 0 6 -4 9 -8z"/>
<path d="M618 3170 c23 -19 31 -37 10 -24 -7 5 -8 3 -3 -5 5 -9 10 -10 18 -2
15 15 -2 43 -29 47 -17 2 -17 1 4 -16z"/>
<path d="M879 2948 c-6 -21 -5 -38 2 -38 5 0 9 9 9 20 0 16 -7 28 -11 18z"/>
<path d="M4320 400 c-6 -11 -8 -20 -6 -20 3 0 10 9 16 20 6 11 8 20 6 20 -3 0
-10 -9 -16 -20z"/>
<path d="M4364 350 c2 -16 20 -14 24 2 3 10 2 10 -6 -1 -7 -9 -11 -10 -15 -2
-4 7 -5 8 -3 1z"/>
<path d="M4435 340 c-4 -6 -3 -16 3 -22 6 -6 12 -6 17 2 4 6 3 16 -3 22 -6 6
-12 6 -17 -2z"/>
<path d="M5095 133 c2 -16 4 -32 4 -38 1 -5 5 -5 11 1 7 7 8 19 1 37 -13 35
-21 34 -16 0z"/>
<path d="M3425 5009 c-503 -69 -912 -416 -1088 -925 -80 -230 -111 -438 -111
-749 1 -418 81 -839 194 -1015 43 -67 73 -78 141 -49 57 25 172 107 258 186
l55 49 90 -53 c186 -110 385 -170 591 -180 265 -12 511 49 751 187 114 65 194
129 300 235 186 188 308 417 366 688 30 144 30 370 0 514 -63 293 -193 526
-409 733 -197 189 -425 309 -698 365 -95 20 -341 28 -440 14z"/>
<path d="M276 3741 c-9 -13 -3 -60 6 -55 4 3 8 -5 8 -18 0 -16 -3 -19 -9 -10
-7 11 -9 11 -14 -2 -3 -8 -2 -18 4 -21 5 -4 6 -11 3 -17 -4 -7 -2 -8 5 -4 6 4
9 11 6 16 -3 5 -1 11 4 14 12 8 12 94 1 101 -5 3 -11 1 -14 -4z m11 -33 c-3
-7 -5 -2 -5 12 0 14 2 19 5 13 2 -7 2 -19 0 -25z"/>
<path d="M260 3595 c0 -2 6 -8 13 -14 10 -8 14 -7 14 2 0 8 -6 14 -14 14 -7 0
-13 -1 -13 -2z"/>
<path d="M355 3470 c3 -5 8 -10 11 -10 2 0 4 5 4 10 0 6 -5 10 -11 10 -5 0 -7
-4 -4 -10z"/>
<path d="M414 3445 c-4 -8 -4 -21 -1 -29 3 -7 1 -18 -3 -22 -5 -5 -5 -15 1
-24 9 -13 10 -13 6 2 -3 9 -3 19 0 22 6 6 11 66 5 66 -1 0 -5 -7 -8 -15z"/>
<path d="M483 3358 c-2 -19 0 -20 8 -8 8 11 9 9 5 -11 -4 -16 -1 -31 7 -38 10
-8 14 -7 15 2 0 6 3 22 6 35 3 12 1 20 -3 17 -5 -3 -11 2 -15 10 -8 22 -22 18
-23 -7z m30 -33 c-3 -9 -8 -14 -10 -11 -3 3 -2 9 2 15 9 16 15 13 8 -4z"/>
<path d="M460 3341 c0 -6 4 -13 10 -16 6 -3 7 1 4 9 -7 18 -14 21 -14 7z"/>
<path d="M562 3267 c-8 -9 -8 -17 0 -27 8 -13 9 -12 5 2 -3 9 -1 19 6 21 7 2
9 7 6 11 -3 4 -11 1 -17 -7z"/>
<path d="M530 3251 c0 -6 4 -13 10 -16 6 -3 7 1 4 9 -7 18 -14 21 -14 7z"/>
<path d="M550 3211 c0 -6 4 -13 10 -16 6 -3 7 1 4 9 -7 18 -14 21 -14 7z"/>
<path d="M611 3103 c7 -12 15 -20 18 -17 3 2 -3 12 -13 22 -17 16 -18 16 -5
-5z"/>
<path d="M686 3111 c-3 -5 1 -14 9 -21 12 -10 15 -10 15 3 0 19 -16 31 -24 18z"/>
<path d="M730 2966 c0 -2 8 -10 18 -17 15 -13 16 -12 3 4 -13 16 -21 21 -21
13z"/>
<path d="M931 2765 c0 -11 15 -90 34 -175 20 -85 38 -168 42 -183 3 -15 8 -26
10 -23 3 2 -11 73 -31 158 -19 84 -39 173 -44 198 -6 25 -10 36 -11 25z"/>
<path d="M1020 2365 c0 -18 83 -325 87 -321 2 2 -15 75 -38 162 -38 145 -49
182 -49 159z"/>
<path d="M1111 2014 c0 -11 3 -14 6 -6 3 7 2 16 -1 19 -3 4 -6 -2 -5 -13z"/>
<path d="M1121 1985 c0 -5 8 -41 19 -80 11 -38 18 -54 15 -34 -6 39 -33 130
-34 114z"/>
<path d="M1161 1820 c-1 -8 4 -31 9 -52 6 -20 21 -98 34 -175 14 -76 25 -126
25 -111 2 50 -66 384 -68 338z"/>
<path d="M1233 1410 c0 -25 2 -35 4 -22 2 12 2 32 0 45 -2 12 -4 2 -4 -23z"/>
<path d="M1244 1255 c0 -55 1 -76 3 -47 2 29 2 74 0 100 -2 26 -3 2 -3 -53z"/>
<path d="M2425 1300 c-3 -6 1 -7 9 -4 18 7 21 14 7 14 -6 0 -13 -4 -16 -10z"/>
<path d="M2460 1296 c0 -2 14 -14 30 -26 17 -12 30 -19 30 -16 0 2 -13 14 -30
26 -16 12 -30 19 -30 16z"/>
<path d="M2389 1253 l-24 -28 28 24 c25 23 32 31 24 31 -2 0 -14 -12 -28 -27z"/>
<path d="M2319 1193 l-24 -28 28 24 c25 23 32 31 24 31 -2 0 -14 -12 -28 -27z"/>
<path d="M2620 1186 c0 -3 9 -10 20 -16 11 -6 20 -8 20 -6 0 3 -9 10 -20 16
-11 6 -20 8 -20 6z"/>
<path d="M2255 1144 l-30 -26 33 22 c17 12 32 23 32 26 0 7 -4 5 -35 -22z"/>
<path d="M2670 1156 c0 -3 9 -10 20 -16 11 -6 20 -8 20 -6 0 3 -9 10 -20 16
-11 6 -20 8 -20 6z"/>
<path d="M1252 1120 c0 -14 2 -19 5 -12 2 6 2 18 0 25 -3 6 -5 1 -5 -13z"/>
<path d="M2177 1096 c-48 -29 -61 -43 -22 -23 31 16 74 46 65 46 -3 0 -22 -10
-43 -23z"/>
<path d="M2740 1116 c0 -3 14 -12 30 -21 17 -9 30 -13 30 -11 0 3 -13 12 -30
21 -16 9 -30 13 -30 11z"/>
<path d="M1260 1084 c0 -6 7 -19 16 -30 14 -18 14 -18 3 6 -14 31 -19 36 -19
24z"/>
<path d="M2840 1060 c8 -5 20 -10 25 -10 6 0 3 5 -5 10 -8 5 -19 10 -25 10 -5
0 -3 -5 5 -10z"/>
<path d="M1990 1000 c-8 -5 -10 -10 -5 -10 6 0 17 5 25 10 8 5 11 10 5 10 -5
0 -17 -5 -25 -10z"/>
<path d="M1940 980 c-8 -5 -10 -10 -5 -10 6 0 17 5 25 10 8 5 11 10 5 10 -5 0
-17 -5 -25 -10z"/>
<path d="M1344 971 c7 -11 46 -35 46 -28 0 3 -12 12 -26 22 -15 9 -23 12 -20
6z"/>
<path d="M3078 973 c7 -3 16 -2 19 1 4 3 -2 6 -13 5 -11 0 -14 -3 -6 -6z"/>
<path d="M3118 963 c7 -3 16 -2 19 1 4 3 -2 6 -13 5 -11 0 -14 -3 -6 -6z"/>
<path d="M3168 953 c7 -3 16 -2 19 1 4 3 -2 6 -13 5 -11 0 -14 -3 -6 -6z"/>
<path d="M1838 943 c7 -3 16 -2 19 1 4 3 -2 6 -13 5 -11 0 -14 -3 -6 -6z"/>
<path d="M3223 943 c9 -2 23 -2 30 0 6 3 -1 5 -18 5 -16 0 -22 -2 -12 -5z"/>
<path d="M1410 930 c8 -5 20 -10 25 -10 6 0 3 5 -5 10 -8 5 -19 10 -25 10 -5
0 -3 -5 5 -10z"/>
<path d="M3288 933 c12 -2 30 -2 40 0 9 3 -1 5 -23 4 -22 0 -30 -2 -17 -4z"/>
<path d="M1758 923 c6 -2 18 -2 25 0 6 3 1 5 -13 5 -14 0 -19 -2 -12 -5z"/>
<path d="M3387 923 c18 -2 50 -2 70 0 21 2 7 4 -32 4 -38 0 -55 -2 -38 -4z"/>
<path d="M1468 913 c7 -3 16 -2 19 1 4 3 -2 6 -13 5 -11 0 -14 -3 -6 -6z"/>
<path d="M1708 913 c6 -2 18 -2 25 0 6 3 1 5 -13 5 -14 0 -19 -2 -12 -5z"/>
<path d="M1543 903 c26 -2 67 -2 90 0 23 2 2 3 -48 3 -49 0 -68 -1 -42 -3z"/>
<path d="M3631 858 c-13 -20 -12 -22 1 -11 8 7 18 10 22 6 4 -4 4 0 0 10 -8
21 -6 21 -23 -5z"/>
<path d="M3650 830 c0 -5 5 -10 11 -10 5 0 7 5 4 10 -3 6 -8 10 -11 10 -2 0
-4 -4 -4 -10z"/>
<path d="M3705 821 c-3 -5 -2 -12 3 -15 5 -3 9 1 9 9 0 17 -3 19 -12 6z"/>
<path d="M3803 735 c0 -8 4 -12 9 -9 5 3 6 10 3 15 -9 13 -12 11 -12 -6z"/>
<path d="M3830 656 c0 -9 -4 -14 -10 -11 -13 8 -13 -5 0 -25 8 -13 10 -12 10
3 0 9 4 17 8 17 5 0 8 -16 7 -35 -2 -19 1 -33 5 -32 5 1 16 -7 25 -18 15 -18
15 -17 0 9 -16 27 -16 29 0 23 9 -4 19 -7 21 -7 3 0 2 -5 -2 -12 -4 -7 -3 -8
5 -4 9 6 8 14 -3 32 -9 13 -16 30 -16 39 0 10 -5 13 -12 9 -6 -4 -17 1 -25 11
-12 17 -13 18 -13 1z m46 -48 c13 -16 14 -19 2 -10 -13 10 -17 10 -21 0 -3 -7
-4 -3 -4 10 1 12 2 22 3 22 0 0 9 -10 20 -22z"/>
<path d="M3787 646 c-3 -8 2 -20 11 -27 14 -11 15 -11 5 0 -6 7 -9 20 -6 27 3
8 3 14 0 14 -3 0 -7 -6 -10 -14z"/>
<path d="M3817 585 c-4 -8 -2 -17 4 -20 5 -4 6 -11 3 -17 -5 -7 -2 -8 5 -3 9
5 9 11 3 17 -6 6 -8 17 -5 24 3 8 3 14 0 14 -3 0 -7 -7 -10 -15z"/>
<path d="M3937 594 c-3 -3 -2 -16 3 -29 5 -13 6 -26 2 -31 -4 -4 -2 -4 5 0 7
4 10 13 6 21 -3 8 -1 15 5 15 14 0 22 -26 11 -37 -5 -5 0 -9 15 -9 14 0 23 3
20 7 -2 4 0 10 6 14 5 3 10 0 10 -8 0 -8 8 -21 18 -28 15 -13 16 -12 3 3 -7
10 -11 24 -8 32 6 16 -16 40 -26 29 -4 -3 -13 0 -22 7 -8 7 -15 9 -15 5 0 -4
-6 -2 -13 4 -8 6 -17 8 -20 5z m72 -30 c5 4 13 1 17 -6 4 -7 3 -10 -1 -5 -5 4
-18 -1 -29 -10 -12 -10 -18 -14 -14 -9 4 5 2 18 -4 30 -10 19 -10 20 5 8 9 -8
21 -11 26 -8z"/>
<path d="M4214 498 c-30 -46 -32 -56 -15 -72 14 -13 20 -13 31 -3 10 10 12 8
6 -8 -6 -20 -6 -20 9 -1 11 15 15 16 15 5 0 -8 -6 -21 -12 -29 -11 -12 -10
-12 3 -2 21 16 31 50 17 58 -5 3 -18 20 -28 36 -13 22 -20 26 -26 16z m9 -25
c-4 -10 -2 -14 4 -10 6 4 18 -2 28 -13 17 -19 17 -19 -4 -15 -11 2 -23 -1 -27
-6 -4 -6 -11 -6 -20 1 -11 10 -11 16 3 36 18 28 25 31 16 7z"/>
<path d="M4206 451 c-3 -4 6 -7 19 -7 14 0 22 2 19 5 -8 8 -34 10 -38 2z"/>
<path d="M4280 366 c0 -2 8 -10 18 -17 15 -13 16 -12 3 4 -13 16 -21 21 -21
13z"/>
<path d="M4701 284 c0 -10 -2 -31 -5 -46 -2 -16 0 -31 5 -34 5 -3 8 -2 7 3 -2
4 2 9 7 10 6 0 9 -2 8 -6 -1 -4 5 -8 12 -8 10 0 12 4 5 12 -5 7 -7 15 -4 18 4
4 -3 5 -15 2 -24 -4 -25 -2 -10 27 8 14 8 23 0 31 -7 7 -10 4 -10 -9z"/>
<path d="M4940 255 c-14 -16 -3 -20 19 -6 8 5 9 11 3 15 -5 3 -15 -1 -22 -9z"/>
<path d="M4851 248 c-1 -10 -1 -21 -1 -25 0 -4 7 -8 15 -9 11 -2 13 1 7 9 -5
7 -12 19 -15 27 -4 12 -6 11 -6 -2z"/>
<path d="M4483 225 c0 -8 4 -12 9 -9 5 3 6 10 3 15 -9 13 -12 11 -12 -6z"/>
<path d="M4830 206 c0 -2 8 -10 18 -17 15 -13 16 -12 3 4 -13 16 -21 21 -21
13z"/>
<path d="M5016 202 c-3 -5 1 -9 9 -9 8 0 12 4 9 9 -3 4 -7 8 -9 8 -2 0 -6 -4
-9 -8z"/>
<path d="M5003 105 c0 -8 4 -12 9 -9 5 3 6 10 3 15 -9 13 -12 11 -12 -6z"/>
<path d="M5155 30 c-3 -5 1 -10 10 -10 9 0 13 5 10 10 -3 6 -8 10 -10 10 -2 0
-7 -4 -10 -10z"/>
</g>
</svg>
